<svg width="55" height="55" viewBox="0 0 55 55" fill="none" xmlns="http://www.w3.org/2000/svg">
<rect width="55" height="55" rx="27.5" fill="black" fill-opacity="0.01"/>
<path d="M0 27.5C0 12.3122 12.3122 0 27.5 0C42.6878 0 55 12.3122 55 27.5C55 42.6878 42.6878 55 27.5 55C12.3122 55 0 42.6878 0 27.5Z" fill="url(#paint0_radial_5951_24362)" fill-opacity="0.48"/>
<path d="M25.4313 12.6676C25.4213 12.6934 25.3661 12.7088 25.316 12.7087C25.2156 12.7085 24.7148 13.1723 24.715 13.2653C24.715 13.3015 24.695 13.3273 24.6649 13.3272C24.6398 13.3271 24.6148 13.3581 24.6149 13.3994C24.615 13.4407 24.585 13.5078 24.5499 13.5439C24.4598 13.6315 24.3507 14.2563 24.3515 14.6438C24.3522 15.0105 24.4384 15.4601 24.5137 15.4861C24.5438 15.4965 24.569 15.5378 24.5691 15.574C24.5696 15.8064 25.4535 16.2112 25.8196 16.15C25.9199 16.1295 26.0754 16.104 26.1657 16.0887C26.251 16.0682 26.3262 16.0374 26.3261 16.0064C26.3261 15.9805 26.3512 15.9754 26.3763 15.991C26.522 16.0843 27.0776 15.4087 27.077 15.1401C27.0769 15.0885 27.1119 15.0111 27.152 14.9698C27.192 14.9286 27.212 14.8873 27.2019 14.8718C27.1919 14.8614 27.1664 14.6444 27.1508 14.3913C27.1352 14.133 27.0997 13.9159 27.0695 13.9107C27.0444 13.9003 27.0243 13.8486 27.0242 13.797C27.0241 13.7453 27.0039 13.6833 26.9737 13.6677C26.9486 13.6522 26.9234 13.5901 26.9233 13.5333C26.9232 13.4817 26.908 13.4352 26.888 13.4351C26.8227 13.435 26.6716 13.1196 26.7066 13.0628C26.7215 13.0267 26.7115 13.0215 26.6814 13.0421C26.6464 13.0627 26.5409 13.0005 26.4403 12.897C26.3347 12.7934 26.2141 12.7105 26.169 12.7105C26.1238 12.7104 26.0736 12.6948 26.0535 12.6792C26.0083 12.6326 25.4613 12.6263 25.4313 12.6676ZM25.8898 13.6087C25.9652 13.676 26.0206 13.7691 26.0207 13.8156C26.0208 13.8621 26.0459 13.8983 26.071 13.8983C26.1011 13.8984 26.1113 13.9604 26.0914 14.0378C26.0715 14.1463 26.0766 14.1618 26.1166 14.105C26.1716 14.0225 26.1766 14.0225 26.2623 14.2241C26.3632 14.462 26.3389 14.8648 26.2237 14.9834C26.1686 15.0401 26.1236 15.1072 26.1237 15.1381C26.1238 15.2001 26.0987 15.2001 25.6973 15.1889C25.2758 15.1777 25.1299 14.9863 25.1841 14.506C25.2136 14.222 25.2385 14.1187 25.3435 13.9123C25.4084 13.773 25.6838 13.4843 25.744 13.4844C25.7541 13.4844 25.8194 13.5414 25.8898 13.6087Z" fill="url(#paint1_linear_5951_24362)"/>
<path d="M25.3596 17.1895C25.2594 17.2616 25.1743 17.3492 25.1743 17.3854C25.1744 17.4267 25.1494 17.4577 25.1193 17.4576C25.0942 17.4576 25.0842 17.4834 25.0993 17.5144C25.1195 17.5454 25.0995 17.597 25.0594 17.6279C25.0193 17.664 24.9744 17.7827 24.9596 17.8963C24.9448 18.0099 24.9449 18.0719 24.9599 18.0358C25.0198 17.881 25.0603 18.0515 25.046 18.4234C25.0414 18.6455 25.0722 18.9865 25.1127 19.188C25.1837 19.5446 25.4055 20.0409 25.4908 20.0411C25.5108 20.0412 25.531 20.0774 25.5311 20.1187C25.5311 20.16 25.5563 20.1962 25.5814 20.1963C25.6115 20.1963 25.707 20.2689 25.7924 20.3517C25.8829 20.4397 26.0337 20.5485 26.1291 20.5952C26.2296 20.647 26.32 20.6989 26.3351 20.7144C26.3502 20.7351 26.4456 20.7663 26.556 20.782C26.7819 20.8186 26.8371 20.8601 26.7419 20.9167C26.6968 20.9476 26.7169 20.9683 26.8073 20.984C26.8776 20.9996 26.9227 20.9894 26.9076 20.9687C26.8925 20.9428 27.0079 20.9224 27.1584 20.9227C27.334 20.9231 27.4394 20.944 27.4395 20.9801C27.4396 21.0163 27.4898 21.0267 27.56 21.0165C27.6453 20.996 27.6754 21.0116 27.6554 21.0632C27.6355 21.1148 27.7208 21.1305 28.062 21.1312C28.3731 21.1318 28.4935 21.1476 28.4936 21.1941C28.4937 21.2457 28.5038 21.2458 28.5388 21.1942C28.5788 21.1271 28.7845 21.1379 28.9001 21.2156C28.9403 21.2363 28.9353 21.2621 28.8902 21.293C28.8401 21.3239 28.8652 21.3395 28.9706 21.3397C29.086 21.3399 29.1061 21.3245 29.0458 21.2882C28.9352 21.2157 29.0256 21.2262 29.3569 21.3198C29.5176 21.3667 29.6331 21.4237 29.6231 21.4444C29.6081 21.465 29.6734 21.5013 29.7637 21.517C29.9796 21.5587 30.1907 21.7503 30.0905 21.8121C30.0404 21.843 30.0504 21.8585 30.1307 21.8587C30.2612 21.8589 30.3517 21.9573 30.352 22.0967C30.3521 22.1587 30.3773 22.2208 30.4074 22.2311C30.4526 22.2467 30.4783 22.5516 30.4589 22.8924C30.454 22.9183 30.3738 22.9439 30.2784 22.9437C30.0877 22.9433 29.8417 22.8447 29.8767 22.7879C29.8917 22.7621 29.8264 22.7517 29.7361 22.7566C29.6458 22.7565 29.5805 22.7357 29.5855 22.7047C29.5904 22.6685 29.5453 22.6581 29.4751 22.6735C29.3998 22.6836 29.3496 22.6732 29.3495 22.637C29.3495 22.606 29.3043 22.5801 29.2541 22.58C29.0985 22.5797 28.6467 22.4599 28.6717 22.429C28.6817 22.4084 28.6014 22.403 28.4911 22.4131C28.3857 22.4232 28.2954 22.4127 28.2953 22.3817C28.2953 22.3559 28.1346 22.3298 27.939 22.3242C27.7433 22.3186 27.5576 22.3027 27.5274 22.282C27.2963 22.1369 25.8413 22.201 25.0088 22.3956C24.4922 22.5185 23.3844 23.0792 23.3797 23.2239C23.3798 23.2549 23.3598 23.291 23.3397 23.3013C23.3197 23.3064 23.2446 23.3941 23.1796 23.4921C23.0745 23.652 23.0595 23.6571 23.0242 23.5692C22.9989 23.502 22.9839 23.4968 22.984 23.5485C22.9841 23.5898 22.9993 23.6621 23.0295 23.7035C23.0546 23.7501 23.0547 23.8017 23.0247 23.8378C22.9596 23.9203 22.9205 24.4265 22.9807 24.4266C23.0008 24.4266 23.036 24.4835 23.0512 24.5559C23.0664 24.6231 23.1822 24.8093 23.308 24.9645C23.4488 25.1456 23.5092 25.2542 23.4691 25.2748C23.434 25.285 23.4742 25.3006 23.5495 25.3008C23.6298 25.3061 23.68 25.3269 23.66 25.3578C23.645 25.3836 23.6601 25.394 23.7002 25.3785C23.7403 25.3631 23.7905 25.3736 23.8106 25.4046C23.8257 25.4356 23.881 25.4616 23.9311 25.4617C23.9763 25.4618 24.0617 25.5033 24.117 25.5499C24.303 25.7259 24.4085 25.7984 24.3682 25.7312C24.338 25.6795 24.3631 25.6744 24.4735 25.6952C24.5488 25.7161 24.6593 25.7473 24.7145 25.7732C24.8551 25.8303 25.4926 25.9298 25.7535 25.9303C25.909 25.9307 25.9492 25.9462 25.8941 25.9823C25.8289 26.0235 25.834 26.0338 25.9092 26.034C25.9544 26.0341 25.9945 26.0135 25.9945 25.9877C25.9943 25.9205 26.8874 25.8707 27.0029 25.9329C27.0782 25.9744 27.0983 25.9693 27.0982 25.9073C27.0981 25.8556 27.1482 25.8299 27.2536 25.8301C27.3439 25.8303 27.3941 25.8511 27.3741 25.882C27.3541 25.913 27.4243 25.8873 27.5245 25.8307C27.72 25.7175 27.9808 25.687 27.9208 25.7902C27.9008 25.8263 27.9059 25.8315 27.946 25.8109C27.976 25.7903 27.991 25.749 27.9759 25.7232C27.9558 25.6973 28.036 25.6768 28.1464 25.677C28.2869 25.6773 28.3872 25.6414 28.4573 25.5692C28.5424 25.4816 28.6076 25.4662 28.7582 25.4872C28.8887 25.5029 28.9489 25.4927 28.9387 25.4565C28.9337 25.4204 28.9687 25.3998 29.0189 25.4102C29.0641 25.4206 29.1042 25.4001 29.1042 25.3691C29.1041 25.3432 29.1342 25.3175 29.1743 25.3176C29.2144 25.3176 29.2545 25.3022 29.2645 25.2764C29.2745 25.2558 29.4148 25.1683 29.5803 25.086C29.7457 24.9985 29.896 24.911 29.911 24.8852C29.931 24.8594 29.9812 24.8543 30.0314 24.8699C30.0766 24.8907 30.0967 24.8856 30.0816 24.8545C30.0665 24.8287 30.1516 24.7462 30.2769 24.6742C30.3972 24.6021 30.5274 24.5094 30.5575 24.4681C30.5925 24.4269 30.6526 24.3908 30.6928 24.3909C30.768 24.3911 31.4765 24.8523 31.5017 24.9195C31.5118 24.9453 31.5419 24.9609 31.567 24.9609C31.6372 24.9611 32.0144 25.3906 32.0146 25.4681C32.0147 25.5042 32.0398 25.5198 32.0698 25.4992C32.0999 25.4838 32.1451 25.4993 32.1703 25.5356C32.1954 25.5769 32.1855 25.6234 32.1504 25.644C32.1153 25.6697 32.1354 25.6853 32.2057 25.6854C32.3412 25.6857 32.4115 25.7478 32.5475 25.9961C32.5979 26.0943 32.6583 26.1874 32.6784 26.203C32.7387 26.2547 32.8195 26.5235 32.7895 26.5751C32.7695 26.6061 32.7847 26.6474 32.8248 26.6682C32.86 26.6941 32.9055 26.8491 32.9259 27.0145C32.9565 27.2728 32.9466 27.3244 32.8614 27.4017C32.7963 27.4636 32.7764 27.5255 32.7966 27.5979C32.832 27.7168 32.737 27.9129 32.4368 28.3203C32.1466 28.7175 31.8911 28.9597 31.8158 28.9079C31.7706 28.882 31.7755 28.8562 31.8507 28.8253C31.9059 28.8048 31.8507 28.7995 31.7102 28.8147C31.5246 28.8401 31.4594 28.8245 31.3839 28.7469C31.3286 28.6899 31.188 28.6277 31.0675 28.6067C30.8065 28.5649 30.7312 28.5234 30.8164 28.4719C30.8565 28.4462 30.8414 28.4255 30.7711 28.4047C30.7109 28.3891 30.6757 28.3993 30.6959 28.4252C30.7362 28.4976 30.6508 28.4819 30.1638 28.3414C29.9178 28.2686 29.6618 28.2113 29.5916 28.2111C29.5263 28.211 29.4611 28.1902 29.451 28.1643C29.4459 28.1385 29.3354 28.1021 29.21 28.0915C28.5575 28.0127 28.4672 27.9918 28.4921 27.9041C28.507 27.8473 28.502 27.8421 28.472 27.8834C28.4369 27.935 28.2814 27.9398 27.7494 27.8922C27.3831 27.8605 27.0418 27.8184 27.0016 27.7977C26.7656 27.6887 23.8558 27.91 23.7156 28.0491C23.6905 28.0749 23.5852 28.0954 23.4849 28.0952C23.3795 28.0949 23.2842 28.1154 23.2692 28.1412C23.2492 28.167 23.1088 28.2287 22.9483 28.28C22.7929 28.3262 22.6425 28.3827 22.6124 28.4033C22.4922 28.4908 22.3918 28.501 22.4218 28.4235C22.4417 28.3719 22.4216 28.3616 22.3665 28.3821C22.3264 28.3975 22.2913 28.4284 22.2964 28.444C22.3066 28.5524 22.2766 28.6092 22.2114 28.6091C22.1713 28.609 22.1362 28.6347 22.1362 28.6606C22.1363 28.6916 22.0962 28.7328 22.0411 28.7534C21.8907 28.815 21.2947 29.351 21.2698 29.4543C21.2498 29.511 21.2097 29.5368 21.1696 29.5212C21.1194 29.5004 21.1094 29.5366 21.1247 29.6451C21.145 29.7846 21.11 29.8207 20.9744 29.7997C20.9494 29.7997 20.9344 29.8255 20.9294 29.8565C20.9295 29.8926 20.9247 30.0373 20.92 30.1715C20.9152 30.3058 20.8854 30.4349 20.8604 30.4555C20.7902 30.507 20.7705 30.6723 20.8307 30.6724C20.8608 30.6725 20.8961 30.7552 20.9164 30.8637C20.9468 31.0342 21.0072 31.1377 21.1782 31.3188C21.2084 31.3602 21.2386 31.4171 21.2387 31.4481C21.2387 31.4791 21.3493 31.5775 21.49 31.6656C21.6256 31.7537 21.7262 31.8468 21.7062 31.8778C21.6912 31.9088 21.7012 31.9139 21.7313 31.8933C21.7814 31.8625 22.0325 31.9508 22.0928 32.0181C22.1079 32.0336 22.2636 32.0907 22.4443 32.1479C22.6251 32.2 22.7908 32.2571 22.8209 32.2727C22.8912 32.309 22.9916 32.3195 23.649 32.357C24.3214 32.3946 24.467 32.4207 24.427 32.4878C24.412 32.5188 24.4572 32.5395 24.5274 32.5397C24.5977 32.5398 24.6478 32.5192 24.6327 32.4934C24.6176 32.4675 24.6376 32.4314 24.6827 32.416C24.798 32.3698 25.4504 32.3814 25.6712 32.4335C25.8118 32.47 25.857 32.4649 25.8569 32.4133C25.8567 32.3306 26.4838 32.2803 26.6244 32.3477C26.6847 32.3788 26.7198 32.3686 26.7398 32.3118C26.7597 32.2653 26.8349 32.2345 26.9303 32.2347C27.0156 32.2297 27.2011 32.1991 27.3366 32.1632C27.5071 32.1171 27.6074 32.1121 27.6526 32.1432C27.6928 32.1795 27.7129 32.1795 27.7128 32.133C27.7127 32.0917 27.7629 32.0763 27.8633 32.092C27.9586 32.1077 28.0138 32.0923 28.0137 32.051C28.0136 31.9838 28.4499 31.8969 28.6657 31.918C28.7511 31.9285 28.7711 31.9182 28.7259 31.8872C28.6857 31.8561 28.7508 31.8252 28.9214 31.7843C29.2423 31.7074 29.2825 31.7075 29.2375 31.7849C29.2175 31.821 29.2576 31.8056 29.3227 31.7438C29.493 31.5943 29.6986 31.5173 29.7539 31.5742C29.784 31.6052 29.8542 31.5744 29.9494 31.492C30.0395 31.4095 30.1549 31.3632 30.2602 31.3635C30.3455 31.3636 30.4208 31.3431 30.4207 31.3173C30.4207 31.2915 30.5108 31.2297 30.6211 31.1782C30.7314 31.1268 30.8216 31.0702 30.8216 31.0444C30.8215 31.0237 30.8566 31.0031 30.9018 31.0032C30.9419 31.0033 31.1223 30.9003 31.3027 30.7716C31.4781 30.6428 31.6434 30.5398 31.6635 30.5399C31.6886 30.5399 31.7688 30.4833 31.8439 30.4111C31.9741 30.2874 32.1496 30.2413 32.1849 30.3188C32.195 30.3447 32.3306 30.4276 32.4914 30.5106C32.6471 30.5936 32.7777 30.6765 32.7778 30.7023C32.7778 30.7281 32.808 30.7489 32.8431 30.7489C32.9334 30.7491 33.1897 30.9718 33.6674 31.4635C33.8987 31.6964 34.0848 31.9241 34.0849 31.9654C34.085 32.0067 34.1101 32.0429 34.1352 32.043C34.1653 32.0431 34.1855 32.0793 34.1856 32.1206C34.1856 32.1619 34.2008 32.1981 34.2258 32.1981C34.3212 32.1983 34.5739 33.0873 34.4836 33.1181C34.4234 33.1438 34.424 33.4383 34.4842 33.4384C34.5143 33.4385 34.5145 33.5005 34.4896 33.6037C34.4647 33.6915 34.4549 33.8206 34.4701 33.8878C34.5257 34.1048 34.0814 35.2197 33.9559 35.1729C33.9207 35.1574 33.8806 35.1728 33.8606 35.2037C33.8406 35.2398 33.8456 35.245 33.8807 35.2244C34.001 35.1524 33.9361 35.302 33.7809 35.4877C33.4054 35.9104 33.2802 36.0238 33.2149 35.9979C33.1697 35.9823 33.1547 35.9977 33.1698 36.0391C33.185 36.0805 33.1199 36.1836 33.0298 36.2713C32.8645 36.431 32.7191 36.4721 32.6688 36.3842C32.6486 36.3583 32.4628 36.2494 32.2468 36.1405C32.0358 36.0316 31.855 35.9227 31.8449 35.9021C31.8348 35.8814 31.7997 35.8606 31.7696 35.8606C31.7394 35.8605 31.5436 35.7723 31.3326 35.6582C31.1267 35.5493 30.8153 35.404 30.6445 35.3365C30.4688 35.269 30.3282 35.1964 30.3281 35.1757C30.3281 35.1499 30.2829 35.1343 30.2277 35.1342C30.1725 35.1341 30.1273 35.1082 30.1272 35.0772C30.1272 35.0514 30.1071 35.0358 30.082 35.0564C30.0219 35.0925 29.6252 34.9677 29.6251 34.916C29.6251 34.8902 29.5397 34.8745 29.4344 34.8743C29.319 34.8741 29.2035 34.8377 29.1432 34.7807C29.0929 34.7289 28.9874 34.6926 28.9122 34.7027C28.8319 34.7077 28.7717 34.6921 28.7716 34.6715C28.7716 34.6456 28.7113 34.6248 28.6361 34.6247C28.5608 34.6245 28.4905 34.5986 28.4804 34.5676C28.4703 34.5365 28.4 34.5106 28.3298 34.5104C28.1341 34.51 27.8127 34.406 27.8427 34.3544C27.8577 34.3338 27.7724 34.313 27.652 34.3179C27.2606 34.3274 26.8039 34.2438 26.8338 34.1664C26.8488 34.1303 26.8336 34.0837 26.8035 34.063C26.7683 34.0371 26.7633 34.0474 26.7885 34.0888C26.8338 34.1716 26.4524 34.1449 25.6343 34.0141C25.1876 33.946 24.8564 33.935 23.878 33.9537C22.453 33.9869 22.2975 34.0072 21.2394 34.2891C20.9987 34.3558 20.9284 34.3556 20.9734 34.2782C20.9934 34.2421 20.9884 34.2369 20.9483 34.2575C20.9182 34.2781 20.9032 34.3142 20.9183 34.3401C20.9435 34.3815 20.643 34.634 20.5927 34.6132C20.5124 34.582 19.9663 34.9838 19.6608 35.2931C19.07 35.8911 18.8602 36.3917 18.9018 37.0995C18.9432 37.7556 19.2 38.2003 19.8887 38.8216C19.9742 38.9045 20.0496 38.9976 20.0497 39.0286C20.0498 39.0596 20.0799 39.0751 20.115 39.0597C20.1902 39.034 20.8331 39.335 21.1546 39.5474C21.1647 39.5578 21.1497 39.5836 21.1096 39.6042C21.0595 39.635 21.0645 39.6557 21.1298 39.6765C21.175 39.6973 21.195 39.6921 21.1799 39.6611C21.1648 39.6301 21.1949 39.6095 21.2501 39.6096C21.3103 39.6097 21.3555 39.6305 21.3555 39.6563C21.3556 39.6821 21.3857 39.7029 21.4209 39.6978C21.6366 39.6931 21.7169 39.7191 21.692 39.7913C21.672 39.8326 21.6872 39.8791 21.7173 39.8998C21.7474 39.9206 21.7575 39.9154 21.7373 39.8792C21.6769 39.7758 21.7923 39.7709 22.1839 39.875C22.3947 39.9271 22.6256 39.974 22.6959 39.9742C22.7762 39.9744 22.8063 39.9951 22.7813 40.0364C22.7563 40.0776 22.7814 40.0828 22.8667 40.0624C23.0422 40.0162 23.8201 40.085 23.78 40.1469C23.765 40.1727 23.7952 40.1779 23.8654 40.1574C23.9406 40.1317 23.9657 40.1369 23.9457 40.1782C23.9257 40.2092 23.9308 40.235 23.9609 40.2351C23.9859 40.2351 24.016 40.2094 24.026 40.1784C24.0359 40.1423 24.1363 40.127 24.2667 40.1324C24.3922 40.1378 24.5728 40.1434 24.6682 40.1436C24.7635 40.1386 24.8539 40.1646 24.874 40.1905C24.8891 40.2163 24.9393 40.2268 24.9844 40.2062C25.0295 40.1908 25.0545 40.1547 25.0394 40.1288C25.0243 40.103 25.2952 40.0829 25.6666 40.0836C26.073 40.0845 26.3238 40.0643 26.3238 40.0334C26.3237 40.0024 26.4391 39.9819 26.5796 39.9822C26.7552 39.9826 26.8204 39.9982 26.7954 40.0447C26.7754 40.0808 26.7805 40.086 26.8206 40.0654C26.8506 40.0448 26.8656 40.0086 26.8505 39.9828C26.8102 39.9156 27.041 39.8644 27.2718 39.8907C27.3822 39.9012 27.4625 39.8962 27.4474 39.8756C27.4222 39.829 27.7883 39.7265 27.994 39.7269C28.0944 39.7271 28.1897 39.7066 28.2047 39.6757C28.2197 39.6499 28.2848 39.6242 28.3501 39.6243C28.4103 39.6244 28.4805 39.6091 28.5005 39.5885C28.5205 39.5627 28.6008 39.5473 28.671 39.5423C28.7463 39.5373 28.8817 39.5169 28.977 39.4965C29.1124 39.4658 29.1375 39.471 29.1075 39.5226C29.0825 39.5638 29.0876 39.5793 29.1226 39.5536C29.1527 39.533 29.1677 39.4865 29.1475 39.4452C29.1273 39.3883 29.1574 39.3677 29.2678 39.3679C29.3481 39.3681 29.4333 39.3476 29.4634 39.3219C29.5335 39.2548 29.8445 39.2038 29.8095 39.2657C29.7945 39.2967 29.8297 39.3174 29.8949 39.3124C29.9601 39.3125 29.9801 39.2971 29.945 39.2815C29.8546 39.2452 30.1102 39.1114 30.2708 39.1117C30.3511 39.1119 30.3811 39.0913 30.356 39.0499C30.3308 39.0086 30.3659 39.0035 30.4763 39.0243C30.5868 39.0504 30.6319 39.0402 30.6218 38.9937C30.6167 38.9627 30.6568 38.9369 30.712 38.9422C30.7622 38.9475 30.8424 38.9011 30.8774 38.8444C30.9274 38.7773 30.9876 38.7516 31.0679 38.7673C31.1382 38.7778 31.1883 38.7624 31.1933 38.7314C31.1932 38.7004 31.4538 38.546 31.7646 38.3917C32.0804 38.2373 32.341 38.0933 32.341 38.0778C32.341 38.0571 32.4011 38.0262 32.4713 38.0109C32.5415 37.9904 32.6669 37.9286 32.742 37.8668L32.8873 37.7586L33.1134 37.8986C33.2339 37.9711 33.3746 38.0334 33.4147 38.0335C33.4599 38.0336 33.495 38.0543 33.4951 38.0853C33.4951 38.1111 33.5353 38.1371 33.5855 38.1372C33.6357 38.1373 33.6959 38.1529 33.716 38.1787C33.7362 38.1995 33.8366 38.241 33.937 38.2722C34.0374 38.3034 34.1178 38.35 34.1128 38.3759C34.1079 38.4068 34.1832 38.4173 34.2835 38.4072C34.434 38.3869 34.4591 38.3972 34.4341 38.4643C34.4192 38.5108 34.4293 38.5625 34.4595 38.5832C34.4896 38.6039 34.4996 38.5988 34.4845 38.5678C34.4644 38.5367 34.4944 38.5006 34.5546 38.4853C34.6148 38.4699 34.665 38.4855 34.6801 38.5268C34.7003 38.5785 34.8107 38.5943 35.1118 38.5845C35.4078 38.5748 35.5182 38.5906 35.5384 38.6423C35.5687 38.725 35.6891 38.7304 35.714 38.6529C35.724 38.622 35.8995 38.5862 36.1203 38.5763C36.336 38.5664 36.5567 38.5307 36.6119 38.4998C36.7322 38.4329 36.8778 38.4797 36.8278 38.5623C36.8078 38.6036 36.8128 38.6087 36.8479 38.5881C36.8779 38.5675 36.8929 38.5211 36.8727 38.4797C36.8526 38.4229 36.8826 38.4023 36.983 38.4025C37.0532 38.4026 37.1636 38.377 37.2187 38.3461C37.2989 38.2998 37.334 38.305 37.3642 38.3568C37.3995 38.4137 37.4095 38.4085 37.4094 38.3414C37.4093 38.2897 37.4543 38.2278 37.5044 38.1969C37.6598 38.1146 37.6849 38.1353 37.5798 38.2591L37.4847 38.3777L37.5999 38.2798C37.6951 38.1922 37.71 38.1302 37.7093 37.8099C37.7087 37.4638 37.6985 37.4277 37.578 37.3448C37.4825 37.2826 37.4623 37.2464 37.5074 37.2155C37.5475 37.1897 37.5324 37.169 37.4622 37.1482C37.4019 37.1326 37.3668 37.1429 37.3869 37.1687C37.402 37.1946 37.3268 37.2151 37.2214 37.2149C37.1161 37.2147 36.9656 37.2505 36.8854 37.2917C36.8052 37.338 36.73 37.3585 36.7149 37.343C36.6998 37.3326 36.6246 37.3583 36.5394 37.4098C36.4292 37.4767 36.384 37.4818 36.3689 37.4301C36.3386 37.3474 36.0175 37.3467 35.9875 37.4396C35.9676 37.4861 35.8522 37.5117 35.6064 37.5163C35.3153 37.5209 35.2501 37.5104 35.25 37.4433C35.2499 37.3968 35.2046 37.3657 35.1394 37.3655C35.0441 37.3653 35.0391 37.3757 35.0994 37.4171C35.1546 37.4534 35.1346 37.4688 35.0142 37.4686C34.9239 37.4684 34.8486 37.4424 34.8485 37.4114C34.8484 37.3856 34.8735 37.3753 34.9087 37.3961C34.9438 37.4168 34.9488 37.4116 34.9287 37.3754C34.9035 37.3289 34.8634 37.3288 34.7982 37.3648C34.723 37.406 34.6528 37.3904 34.5121 37.3126C34.4066 37.2556 34.2911 37.2088 34.256 37.2088C34.1657 37.2086 33.8944 37.0582 33.8943 37.0117C33.8943 36.9911 34.0745 36.7796 34.2948 36.5425C34.5151 36.3053 34.7203 36.0681 34.7503 36.0114C34.7753 35.9598 34.8204 35.9289 34.8455 35.9444C34.8757 35.96 34.8857 35.9445 34.8706 35.9083C34.8403 35.8204 34.9754 35.6399 35.0407 35.6866C35.0759 35.7073 35.0808 35.6866 35.0607 35.6298C35.0405 35.5677 35.0455 35.5523 35.0856 35.5782C35.1258 35.5989 35.1358 35.5886 35.1157 35.5421C35.1005 35.5007 35.1105 35.4491 35.1405 35.4285C35.1706 35.4131 35.1956 35.3511 35.1955 35.2943C35.1954 35.2426 35.2153 35.1962 35.2404 35.1962C35.2655 35.1963 35.2955 35.124 35.3154 35.0363C35.3302 34.9485 35.3952 34.804 35.4552 34.7163C35.5153 34.6286 35.5402 34.577 35.5052 34.5976C35.43 34.6439 35.4246 34.458 35.4946 34.3186C35.5245 34.2567 35.5295 34.2102 35.4943 34.1895C35.4642 34.1688 35.4691 34.112 35.504 34.0346C35.534 33.9675 35.5791 33.9211 35.5992 33.9366C35.6243 33.9522 35.6443 33.9264 35.6442 33.8799C35.6441 33.8334 35.624 33.8127 35.5939 33.8281C35.5689 33.8436 35.5438 33.8332 35.5437 33.8074C35.5436 33.7764 35.5687 33.7506 35.5938 33.7506C35.6239 33.7507 35.6439 33.7249 35.6438 33.6939C35.6438 33.6681 35.6237 33.6577 35.5936 33.6732C35.5686 33.6886 35.5434 33.6679 35.5433 33.6214C35.5432 33.5749 35.5683 33.5543 35.5934 33.5698C35.6235 33.5854 35.6436 33.5699 35.6435 33.5235C35.6434 33.4821 35.6583 33.4098 35.6783 33.3582C35.6982 33.3066 35.6882 33.2808 35.6581 33.3014C35.633 33.3168 35.6079 33.3013 35.6078 33.2599C35.6078 33.2186 35.6278 33.198 35.6529 33.2135C35.6981 33.2446 35.6423 32.9088 35.592 32.8725C35.5317 32.831 35.4253 32.3091 35.4552 32.2007C35.4701 32.1439 35.4549 32.0819 35.4198 32.056C35.3846 32.0353 35.3141 31.9215 35.2637 31.7974C35.2083 31.6785 35.1529 31.5802 35.1328 31.5802C35.1127 31.5801 35.0825 31.5232 35.0673 31.4509C35.0471 31.3785 35.0119 31.3216 34.9868 31.3216C34.9567 31.3215 34.9365 31.2905 34.9365 31.2543C34.9364 31.2182 34.8911 31.1561 34.8358 31.1147C34.7805 31.0732 34.7353 31.0163 34.7352 30.9853C34.7351 30.9337 34.2976 30.442 34.2524 30.4419C34.2374 30.4419 34.1921 30.4108 34.1519 30.3746C33.966 30.2192 33.8855 30.1106 33.9155 30.0642C33.9305 30.0332 33.9204 30.028 33.8904 30.0486C33.8402 30.0795 33.2776 29.7529 33.0665 29.5717C32.966 29.4837 32.9909 29.3959 33.1961 29.1225C33.3412 28.9369 33.5463 28.6016 33.7162 28.2868C33.7462 28.2197 33.7761 28.1216 33.776 28.0596C33.7758 27.9873 33.8009 27.9616 33.841 27.9771C33.8913 27.9979 33.9062 27.9669 33.886 27.8791C33.8758 27.8119 33.8857 27.7551 33.9159 27.7552C33.9409 27.7552 33.976 27.714 33.9959 27.6624C34.0109 27.6159 34.0409 27.5385 34.0558 27.4972C34.0808 27.4301 34.0758 27.4301 34.0307 27.4971C33.9907 27.5539 33.9754 27.4247 33.9746 27.0166C33.9739 26.686 33.9534 26.4639 33.9233 26.4638C33.8982 26.4638 33.873 26.3914 33.8728 26.3087C33.8726 26.2209 33.8524 26.1537 33.8273 26.1537C33.8022 26.1536 33.7669 26.0606 33.7466 25.9469C33.7263 25.8332 33.691 25.7402 33.6659 25.7401C33.6408 25.7401 33.6207 25.7039 33.6206 25.6574C33.6205 25.6109 33.6456 25.5954 33.6858 25.6162C33.7209 25.6369 33.7309 25.6318 33.7058 25.6059C33.6807 25.58 33.6355 25.5593 33.6054 25.5592C33.5702 25.5591 33.5501 25.5178 33.55 25.4713C33.5549 25.4196 33.5298 25.3989 33.4947 25.4143C33.4596 25.4246 33.4144 25.3935 33.3992 25.3366C33.379 25.2798 33.3236 25.197 33.2683 25.1453C33.1628 25.0469 33.1273 24.8815 33.2278 24.9437C33.263 24.9644 33.268 24.9593 33.2478 24.9179C33.2277 24.8869 33.1875 24.8765 33.1574 24.8919C33.1274 24.9125 32.9766 24.7831 32.8157 24.6071C32.6598 24.4363 32.514 24.2914 32.4989 24.2913C32.4638 24.2913 32.308 24.167 32.1522 24.0169C32.1019 23.9703 32.0466 23.9288 32.0215 23.9288C32.0015 23.9287 31.8658 23.8458 31.7251 23.7474C31.5794 23.6489 31.4387 23.566 31.4086 23.5659C31.3484 23.5658 31.3432 23.447 31.4032 23.38C31.4283 23.3542 31.4682 23.2303 31.493 23.1012C31.5178 22.9721 31.5628 22.8689 31.5929 22.869C31.623 22.869 31.6681 22.8485 31.6932 22.8227C31.7182 22.7969 31.7081 22.7917 31.6731 22.8123C31.6229 22.838 31.6078 22.7915 31.6075 22.6417C31.6073 22.5281 31.5819 22.373 31.5466 22.3007C31.5063 22.2024 31.5011 22.1404 31.5411 22.0785C31.5661 22.0269 31.576 21.9443 31.5508 21.8874C31.5306 21.8306 31.5105 21.8047 31.5105 21.8305C31.5007 21.9286 31.3597 21.6752 31.3544 21.5616C31.3543 21.4996 31.3341 21.4479 31.309 21.4479C31.284 21.4478 31.2437 21.4012 31.2285 21.3392C31.1881 21.21 30.8714 20.9097 30.5549 20.6973C30.4293 20.6144 30.3187 20.5263 30.3086 20.5057C30.2985 20.4798 30.2483 20.4642 30.1931 20.4641C30.143 20.464 30.0275 20.4224 29.932 20.3654C29.8416 20.3136 29.6709 20.2512 29.5554 20.2303C29.44 20.2094 29.3346 20.1782 29.3245 20.1575C29.3094 20.1368 29.214 20.116 29.1086 20.1106C28.7373 20.084 28.2755 20.0004 28.2453 19.9538C28.205 19.8918 28.0294 19.8914 27.9543 19.9584C27.9092 19.9893 27.8891 19.9893 27.889 19.9531C27.889 19.9273 27.7986 19.9013 27.6832 19.901C27.4172 19.8953 27.1863 19.8432 27.1862 19.7864C27.1862 19.7605 27.1109 19.7397 27.0155 19.7447C26.6994 19.7544 26.222 19.3815 26.126 19.0403C26.0603 18.8129 26.064 18.1672 26.1284 17.7541L26.1829 17.403L26.0221 17.2632C25.7858 17.0612 25.5851 17.035 25.3596 17.1895ZM26.9424 23.2984C26.9425 23.3294 27.0378 23.3554 27.1583 23.3557C27.2737 23.3507 27.4493 23.3614 27.5447 23.3771C27.64 23.3928 27.8057 23.4087 27.911 23.4192C28.0164 23.4349 28.1168 23.4558 28.1319 23.4765C28.147 23.492 28.2273 23.5077 28.3076 23.5078C28.3829 23.508 28.4482 23.5288 28.4482 23.5546C28.4483 23.5856 28.5437 23.6116 28.6641 23.6222C28.7795 23.6328 28.8749 23.664 28.875 23.7001C28.8751 23.7311 28.8952 23.7777 28.9204 23.8035C28.9455 23.8294 28.9505 23.8191 28.9303 23.7777C28.9102 23.7415 28.9252 23.7157 28.9704 23.7158C29.0155 23.7159 29.0507 23.7367 29.0507 23.7625C29.0508 23.7883 29.096 23.7987 29.1461 23.7834C29.1963 23.768 29.3067 23.7992 29.3821 23.8458C29.5026 23.9132 29.5077 23.9236 29.4173 23.9079C29.342 23.8922 29.3019 23.9076 29.302 23.949C29.3021 23.9851 29.267 24.0315 29.2219 24.0469C29.1016 24.0932 29.0414 24.0827 29.0764 24.0208C29.0964 23.9899 29.0663 23.995 29.0111 24.031C28.951 24.0671 28.916 24.1135 28.9311 24.1342C28.9764 24.2117 28.7909 24.294 28.6303 24.2678C28.4998 24.2469 28.4597 24.2572 28.4798 24.3037C28.495 24.3502 28.3947 24.3965 28.164 24.458C27.9785 24.5041 27.818 24.5658 27.808 24.5916C27.7981 24.6225 27.7228 24.643 27.6375 24.6429C27.5522 24.6427 27.3466 24.6784 27.1761 24.7246C26.7398 24.8425 25.9019 24.8872 25.4803 24.8192C25.2946 24.7878 25.2544 24.7619 25.2743 24.6948C25.2943 24.6277 25.2892 24.6277 25.2492 24.6844C25.2092 24.7411 25.154 24.741 24.9331 24.6889C24.7825 24.6525 24.6017 24.5798 24.5264 24.5279C24.456 24.471 24.3756 24.4295 24.3556 24.4295C24.3355 24.4294 24.2551 24.3673 24.1747 24.2948C24.0691 24.1861 24.0489 24.1344 24.0889 24.0621C24.1139 24.0054 24.174 23.9642 24.2242 23.9643C24.2693 23.9644 24.3395 23.918 24.3745 23.8613C24.4095 23.8045 24.4696 23.7582 24.5047 23.7582C24.5449 23.7583 24.6101 23.7275 24.6451 23.6914C24.7703 23.5677 25.6479 23.3474 26.0243 23.3482C26.1146 23.3483 26.1898 23.3227 26.1897 23.2968C26.1897 23.2658 26.3502 23.2455 26.566 23.246C26.7968 23.2464 26.9423 23.2674 26.9424 23.2984ZM27.054 28.8929C27.1494 28.9137 27.3853 28.94 27.5709 28.9508C27.8219 28.9668 27.9373 29.0032 27.9927 29.0704C28.0329 29.1222 28.053 29.1326 28.0329 29.0964C27.9976 29.024 28.3337 29.004 28.379 29.0764C28.3941 29.1023 28.5096 29.1283 28.6401 29.1286C28.7655 29.134 28.896 29.155 28.9312 29.1757C28.9613 29.1964 29.0115 29.2172 29.0366 29.2224C29.0667 29.2225 29.1169 29.2329 29.1521 29.233C29.1872 29.2382 29.2073 29.2589 29.1973 29.2796C29.1823 29.3054 29.2777 29.321 29.4031 29.3213C29.5486 29.3216 29.639 29.3425 29.6391 29.3838C29.6391 29.4148 29.6593 29.4613 29.6844 29.4872C29.7096 29.5131 29.7146 29.5027 29.6944 29.4614C29.6693 29.42 29.6993 29.3994 29.7846 29.3996C29.8549 29.3997 29.9151 29.4205 29.9152 29.4515C29.9152 29.4773 29.9303 29.498 29.9554 29.4981C29.9755 29.493 30.0658 29.4931 30.1561 29.4985C30.2715 29.5039 30.3117 29.5246 30.2867 29.5659C30.2617 29.6072 30.2768 29.6124 30.342 29.5919C30.3871 29.5713 30.4573 29.5766 30.4875 29.6025C30.5177 29.6284 30.608 29.6596 30.6883 29.6701C30.7686 29.6754 30.849 29.7169 30.8591 29.7582C30.8743 29.8099 30.8542 29.8202 30.7689 29.7994C30.7086 29.7837 30.6735 29.7837 30.6886 29.7992C30.7238 29.8406 30.5635 29.9642 30.4782 29.9692C30.4431 29.9691 30.428 29.9433 30.448 29.9072C30.468 29.8711 30.4629 29.8659 30.4279 29.8865C30.3928 29.9071 30.3678 29.9535 30.3678 29.9845C30.368 30.0826 30.1926 30.1701 30.0721 30.1388C30.0018 30.118 29.9667 30.1335 29.9769 30.1748C29.992 30.2472 29.9419 30.278 29.5659 30.4271C29.25 30.5504 29.1347 30.5605 29.0994 30.4674C29.0792 30.4261 29.0692 30.4364 29.0693 30.488C29.0644 30.5758 28.869 30.6891 28.7185 30.6887C28.6683 30.6886 28.5279 30.7245 28.4125 30.7656C28.1418 30.8632 27.7606 30.9502 27.5599 30.955C27.5198 30.96 27.4747 30.9754 27.4596 30.9961C27.4346 31.0373 27.0033 31.1036 26.6972 31.1185C26.5918 31.1182 26.5066 31.1387 26.5066 31.1594C26.5067 31.1852 26.4114 31.2005 26.296 31.1951C26.1304 31.1948 26.1053 31.1844 26.1805 31.1484C26.2707 31.1073 26.2657 31.1021 26.1402 31.1018C26.0599 31.0965 26.0098 31.1222 26.0149 31.1584C26.025 31.1997 25.9799 31.2255 25.9046 31.2201C25.8344 31.2148 25.7642 31.2405 25.7442 31.2766C25.6942 31.3643 23.5215 31.3443 23.436 31.2563C23.4008 31.2201 23.3105 31.1941 23.2352 31.1939C22.8789 31.1932 22.4571 31.0322 22.1957 30.794C21.9645 30.5869 21.8688 30.4163 21.9792 30.4165C21.9993 30.4166 22.0493 30.334 22.0792 30.2359C22.159 30.0191 22.5747 29.6274 22.7002 29.6587C22.7454 29.6743 22.7856 29.6692 22.7805 29.6485C22.7702 29.5349 22.8053 29.4884 22.9156 29.4887C22.9859 29.4888 23.041 29.4631 23.041 29.4321C23.0409 29.4011 23.086 29.3857 23.1413 29.4013C23.1965 29.4169 23.2316 29.4015 23.2265 29.3653C23.2214 29.3292 23.2866 29.3086 23.412 29.3141C23.5325 29.3195 23.5776 29.3041 23.5374 29.2782C23.4872 29.2471 23.5273 29.2317 23.6427 29.2319C23.7731 29.2322 23.7982 29.2167 23.7429 29.1804C23.6877 29.1442 23.7127 29.1287 23.8532 29.129C23.9536 29.1292 24.0489 29.1088 24.0639 29.083C24.0889 29.0417 24.2092 29.0161 24.6457 28.955C24.7159 28.9449 24.7862 28.9657 24.8063 28.9967C24.8315 29.0381 24.8465 29.0329 24.8464 28.9864C24.8464 28.9503 24.9166 28.9246 25.037 28.9249C25.1373 28.9251 25.2527 28.9046 25.2878 28.884C25.3579 28.8377 26.783 28.8458 27.054 28.8929ZM25.0393 35.0666C25.0243 35.0924 25.0444 35.1235 25.0846 35.1442C25.1248 35.1598 25.1599 35.1495 25.1598 35.1237C25.1597 35.0566 25.5461 35.0574 25.5863 35.1246C25.6014 35.1505 25.7871 35.1767 25.9929 35.1771C26.1986 35.1775 26.3642 35.1985 26.3643 35.2244C26.3643 35.2605 26.6555 35.3334 26.9416 35.3599C27.1674 35.3861 27.4184 35.4538 27.4185 35.4951C27.4186 35.521 27.534 35.5419 27.6745 35.5422C27.8802 35.5426 27.9254 35.5582 27.9055 35.615C27.8855 35.6666 27.9006 35.6821 27.9557 35.6616C27.9959 35.6461 28.0511 35.6617 28.0762 35.7031C28.1115 35.76 28.1316 35.7601 28.1616 35.7136C28.2066 35.6362 28.5028 35.704 28.4879 35.7866C28.4829 35.8176 28.5331 35.828 28.5983 35.8127C28.6735 35.8025 28.7237 35.8129 28.7238 35.8491C28.7239 35.8801 28.8042 35.9061 28.8996 35.9063C28.9949 35.9065 29.1304 35.9378 29.2058 35.9689L29.3414 36.0363L29.221 36.0722C29.1408 36.0979 29.1659 36.1031 29.3013 36.0879C29.517 36.0625 29.8885 36.1563 29.8485 36.2233C29.8335 36.2491 29.8586 36.2544 29.8987 36.2389C29.9739 36.2081 30.1246 36.2704 30.7072 36.5609C30.8478 36.6283 30.9834 36.6854 31.0085 36.6855C31.0386 36.6855 31.114 36.7322 31.1844 36.7892C31.2547 36.8461 31.3401 36.8928 31.3752 36.8929C31.4555 36.893 31.7369 37.1054 31.737 37.1622C31.7371 37.1829 31.702 37.2035 31.6619 37.2034C31.6217 37.2033 31.5466 37.2496 31.5015 37.3012C31.4565 37.3579 31.4013 37.394 31.3762 37.3784C31.3511 37.3629 31.3009 37.3783 31.2609 37.4092C31.2208 37.4452 31.0354 37.5482 30.8499 37.6408C30.6093 37.7591 30.499 37.795 30.4738 37.7485C30.4486 37.7123 30.4336 37.7226 30.4337 37.7794C30.4338 37.8414 30.3737 37.8774 30.2483 37.903C30.148 37.9234 30.0076 37.9696 29.9374 38.0056C29.8672 38.0468 29.782 38.0776 29.7519 38.0776C29.7268 38.0775 29.4259 38.1699 29.085 38.2828C28.744 38.4009 28.4331 38.4881 28.3879 38.4828C28.3377 38.4775 28.2625 38.4929 28.2073 38.5134C28.1472 38.5391 28.102 38.5287 28.0718 38.4822C28.0366 38.4253 28.0265 38.4252 28.0267 38.4924C28.0268 38.5802 27.8764 38.6316 27.5253 38.6721C27.43 38.6874 27.3146 38.7079 27.2745 38.7285C27.1692 38.7747 27.0839 38.7849 26.8782 38.7948C26.6023 38.8097 26.5621 38.7993 26.5971 38.727C26.6171 38.6961 26.5871 38.7219 26.532 38.7889C26.4419 38.9024 26.4118 38.9126 26.2612 38.8658C26.1708 38.8398 26.0303 38.824 25.945 38.8393C25.8146 38.8546 25.8046 38.8597 25.895 38.8961C25.9653 38.9272 25.9352 38.9426 25.7696 38.9371C25.584 38.9367 25.5639 38.9315 25.6692 38.8956C25.7745 38.8596 25.7644 38.8545 25.5838 38.8489C25.4182 38.8434 25.3781 38.8588 25.3983 38.9157C25.4235 38.9777 25.278 38.9929 24.4802 39.0068C23.5921 39.0204 23.3763 38.9942 23.4413 38.8858C23.4563 38.86 23.4212 38.8393 23.361 38.8392C23.3007 38.839 23.2707 38.8596 23.2858 38.8907C23.3009 38.9165 23.2708 38.9423 23.2106 38.9422C23.1504 38.942 23.1153 38.9213 23.1303 38.8955C23.1453 38.8697 23.1 38.8386 23.0348 38.823C22.9645 38.8125 22.8943 38.8227 22.8793 38.8433C22.8393 38.9104 22.6686 38.8997 22.6233 38.8221C22.5982 38.7859 22.4777 38.7598 22.3322 38.7595C22.1616 38.7592 22.0863 38.7384 22.0912 38.6971C22.1012 38.6609 22.071 38.6454 22.0309 38.6608C21.9908 38.6814 21.8603 38.6553 21.7398 38.6033C21.323 38.432 20.7504 38.1416 20.7503 38.1002C20.7503 38.0796 20.7151 38.0588 20.6749 38.0588C20.6097 38.0586 20.5544 38.0224 20.3433 37.8205C20.1824 37.6652 20.0465 37.4479 20.0664 37.3705C20.0764 37.324 20.0663 37.293 20.0462 37.3085C20.0061 37.3342 19.8851 37.0499 19.9202 37.0138C19.9302 37.0035 19.9501 36.9105 19.9599 36.8124C19.9846 36.5852 20.1445 36.2911 20.2299 36.3222C20.2651 36.3378 20.3052 36.3224 20.3252 36.2914C20.3452 36.2553 20.3401 36.2501 20.3051 36.2707C20.27 36.2913 20.2449 36.2758 20.2448 36.2293C20.2447 36.1828 20.2546 36.1467 20.2647 36.1467C20.2747 36.1467 20.3248 36.1313 20.375 36.1107C20.4402 36.0851 20.4502 36.0954 20.4202 36.147C20.3952 36.1883 20.4003 36.2038 20.4353 36.178C20.4654 36.1574 20.4804 36.111 20.4652 36.0748C20.4501 36.0334 20.5452 35.9303 20.7055 35.8118C20.8508 35.7037 20.9811 35.5955 20.986 35.5696C20.996 35.549 21.0562 35.5285 21.1214 35.5286C21.1867 35.5287 21.2569 35.503 21.2769 35.4721C21.2919 35.4411 21.352 35.4258 21.4023 35.4414C21.4575 35.457 21.4876 35.4467 21.4674 35.4208C21.4423 35.3743 21.5626 35.3539 21.8236 35.3647C21.9541 35.3702 21.9591 35.365 21.8737 35.3287C21.7883 35.2872 21.7833 35.2769 21.8635 35.277C21.9087 35.2719 21.9488 35.2462 21.9487 35.2204C21.9487 35.1894 22.049 35.1689 22.1694 35.1692C22.2948 35.1694 22.4102 35.1438 22.4252 35.1181C22.4652 35.051 22.8014 35.0517 22.8015 35.1188C22.8016 35.1447 22.8367 35.1551 22.8768 35.1396C22.9169 35.1191 22.9369 35.0881 22.9218 35.0623C22.9067 35.0364 23.3533 35.0167 23.9805 35.018C24.6077 35.0193 25.0543 35.0408 25.0393 35.0666Z" fill="url(#paint2_linear_5951_24362)"/>
<path d="M23.9455 35.1085C24.0057 35.119 24.096 35.1192 24.1462 35.1089C24.1913 35.0935 24.1411 35.0831 24.0307 35.088C23.9203 35.0878 23.8802 35.0981 23.9455 35.1085Z" fill="url(#paint3_linear_5951_24362)"/>
<path d="M24.2541 38.88C24.3394 38.8905 24.49 38.8908 24.5803 38.8807C24.6656 38.8705 24.5953 38.8601 24.4147 38.8597C24.234 38.8593 24.1638 38.8695 24.2541 38.88Z" fill="url(#paint4_linear_5951_24362)"/>
<path d="M24.8912 18.4697C24.8916 18.6401 24.9021 18.7022 24.9122 18.6092C24.9224 18.5162 24.9221 18.3767 24.9116 18.2992C24.9011 18.2217 24.8909 18.2992 24.8912 18.4697Z" fill="url(#paint5_linear_5951_24362)"/>
<defs>
<radialGradient id="paint0_radial_5951_24362" cx="0" cy="0" r="1" gradientUnits="userSpaceOnUse" gradientTransform="translate(27.5 27.5) rotate(90) scale(27.5)">
<stop stop-color="#705C3B" stop-opacity="0"/>
<stop offset="0.692308" stop-color="#A38655" stop-opacity="0.31"/>
<stop offset="0.991558" stop-color="#EFCF9A" stop-opacity="0.66"/>
</radialGradient>
<linearGradient id="paint1_linear_5951_24362" x1="24.351" y1="14.3953" x2="27.2035" y2="14.3896" gradientUnits="userSpaceOnUse">
<stop stop-color="#AA8A54"/>
<stop offset="0.567308" stop-color="#E1BC7E"/>
<stop offset="1" stop-color="#C9A15F"/>
</linearGradient>
<linearGradient id="paint2_linear_5951_24362" x1="18.88" y1="28.6503" x2="37.6908" y2="28.6125" gradientUnits="userSpaceOnUse">
<stop stop-color="#AA8A54"/>
<stop offset="0.567308" stop-color="#E1BC7E"/>
<stop offset="1" stop-color="#C9A15F"/>
</linearGradient>
<linearGradient id="paint3_linear_5951_24362" x1="23.914" y1="35.1013" x2="24.1627" y2="35.1008" gradientUnits="userSpaceOnUse">
<stop stop-color="#AA8A54"/>
<stop offset="0.567308" stop-color="#E1BC7E"/>
<stop offset="1" stop-color="#C9A15F"/>
</linearGradient>
<linearGradient id="paint4_linear_5951_24362" x1="24.2148" y1="38.8735" x2="24.6163" y2="38.8727" gradientUnits="userSpaceOnUse">
<stop stop-color="#AA8A54"/>
<stop offset="0.567308" stop-color="#E1BC7E"/>
<stop offset="1" stop-color="#C9A15F"/>
</linearGradient>
<linearGradient id="paint5_linear_5951_24362" x1="24.8912" y1="18.4607" x2="24.9197" y2="18.4606" gradientUnits="userSpaceOnUse">
<stop stop-color="#AA8A54"/>
<stop offset="0.567308" stop-color="#E1BC7E"/>
<stop offset="1" stop-color="#C9A15F"/>
</linearGradient>
</defs>
</svg>
